<?xml version="1.0" standalone="no"?>
<!DOCTYPE svg PUBLIC "-//W3C//DTD SVG 20010904//EN"
 "http://www.w3.org/TR/2001/REC-SVG-20010904/DTD/svg10.dtd">
<svg version="1.0" xmlns="http://www.w3.org/2000/svg"
 width="424.000000pt" height="250.000000pt" viewBox="0 0 424.000000 250.000000"
 preserveAspectRatio="xMidYMid meet">

<g transform="translate(0.000000,250.000000) scale(0.100000,-0.100000)"
fill="#000000" stroke="none">
<path d="M733 2408 c-54 -12 -135 -84 -158 -140 -51 -126 23 -285 149 -319
100 -27 221 14 272 91 l26 39 186 -5 c102 -2 187 -6 189 -8 2 -1 -38 -89 -89
-194 l-93 -192 -370 0 -370 0 -17 29 c-9 16 -40 43 -70 60 -98 56 -214 38
-290 -47 -131 -146 -26 -372 174 -373 77 -1 140 30 187 92 32 42 37 44 85 45
28 1 274 2 546 3 l495 1 198 395 c108 217 197 397 197 400 0 3 -216 5 -479 5
l-480 0 -53 54 c-44 44 -64 56 -107 65 -59 13 -70 13 -128 -1z"/>
<path d="M2237 2238 c-100 -209 -363 -751 -505 -1040 l-170 -348 674 0 675 0
162 -330 161 -330 243 0 c139 0 243 4 243 9 0 5 -88 185 -195 400 -107 216
-195 396 -195 401 0 6 61 10 151 10 l151 0 40 -45 c46 -52 76 -70 144 -85 99
-23 206 26 257 115 24 44 27 58 25 125 -3 63 -8 82 -32 117 -35 53 -107 99
-166 108 -92 13 -197 -31 -241 -101 l-21 -34 -729 0 c-401 0 -729 3 -729 6 0
4 36 81 79 173 44 91 106 223 139 294 34 70 63 127 66 127 3 0 51 -93 106
-207 55 -115 108 -214 117 -220 18 -14 321 -17 401 -5 l43 7 -216 439 c-119
242 -221 446 -227 453 -8 10 -59 13 -218 13 l-208 0 -25 -52z"/>
<path d="M938 1153 c-48 -98 -173 -352 -278 -565 -104 -213 -190 -390 -190
-393 0 -3 355 -5 790 -5 l790 0 91 181 c49 100 88 183 86 186 -3 2 -250 4
-550 3 -318 0 -548 3 -551 9 -3 5 75 174 174 376 99 202 180 371 180 376 0 5
-97 9 -228 9 l-228 0 -86 -177z"/>
</g>
</svg>
